# xmcd
#
# Track frame offsets:
#	183
#	14720
#	27900
#	42985
#	53635
#	65413
#	77803
#	89725
#	99018
#	110935
#	130733
#	144453
#	159343
#	171690
#	186250
#	200710
#	219460
#	229818
#	239293
#
# Disc length: 3444
#
# Revision: 2
# Processed by: cddbd v1.5.1PL0 Copyright (c) Steve Scherf et al.
# Submitted via: audiograbber 1.81.02
# Normalized: r1:DSETVAR1
#
DISCID=150d7213
DTITLE=Various Artist - Country Stars
DYEAR=1900
DGENRE=Country
TTITLE0=Glen Campbell - Rhinestone Cowboy
TTITLE1=Crystal Gayle - Talking In Your Sleep
TTITLE2=Slim Whitman - Riders In The Sky
TTITLE3=Faron Young - If You Ain´t Lovin´ (You Ain´t Livin´)
TTITLE4=Wanda Jackson - Wabash Cannonball
TTITLE5=Willie Nelson - Country Willie
TTITLE6=Anne Murray and Glen Campbell - United We Stand
TTITLE7=Carl Jackson - Orange Blossom Special
TTITLE8=Merle Travis - Gambler´s Guitar
TTITLE9=Jessi Colter - One Woman Man
TTITLE10=Kenny Rogers and Dottie West - Every Time Two Fools Collide
TTITLE11=Jean Shepard - Sing Me An Old-Fashioned Song
TTITLE12=Hank Thompson - The Wild Side Of Life
TTITLE13=Billie Jo Spears - Harper Valley P.T.A.
TTITLE14=Tex Ritter - High Noon (Do Not Forsake Me)
TTITLE15=Juice Newton - Angel Of The Morning
TTITLE16=Tennessee Ernie Ford - King Of The Road
TTITLE17=Jody Miller - Act Naturally
TTITLE18=Bobbie Gentry - Ode To Billie Joe
EXTD=
EXTT0=
EXTT1=
EXTT2=
EXTT3=
EXTT4=
EXTT5=
EXTT6=
EXTT7=
EXTT8=
EXTT9=
EXTT10=
EXTT11=
EXTT12=
EXTT13=
EXTT14=
EXTT15=
EXTT16=
EXTT17=
EXTT18=
PLAYORDER=
